<svg width="273" height="164" viewBox="0 0 273 164" fill="none" xmlns="http://www.w3.org/2000/svg">
<path d="M65.1887 1.72563C37.6887 7.52563 13.6887 28.8256 4.58866 55.3256C-6.11134 86.5256 2.18866 119.226 26.4887 142.226C35.1887 150.426 44.5887 156.026 56.7887 160.226C65.7887 163.326 66.8887 163.426 81.6887 163.526C95.1887 163.526 98.1887 163.226 104.689 161.226C112.089 158.826 122.589 153.926 128.189 150.126C132.089 147.426 133.289 147.426 144.489 151.026C149.689 152.726 154.289 153.926 154.689 153.826C155.089 153.626 153.589 148.726 151.489 142.726C147.589 132.026 147.589 132.026 149.489 129.226C150.489 127.726 152.589 124.426 154.089 121.726L156.789 117.026H149.989L143.189 117.126L139.489 122.526C135.089 128.726 134.989 129.726 137.789 135.126C138.889 137.426 139.489 139.126 138.989 138.926C138.589 138.726 136.089 137.726 133.489 136.626L128.889 134.826L123.989 138.526C103.189 154.426 72.1887 156.826 49.3887 144.226C35.7887 136.726 25.9887 126.426 19.1887 112.526C9.18866 92.2256 9.28866 71.8256 19.3887 51.0256C23.2887 42.9256 25.2887 40.2256 33.0887 32.5256C40.4887 25.2256 43.7887 22.6256 50.6887 19.3256C63.0887 13.3256 71.0887 11.6256 85.3887 12.2256C104.289 13.0256 117.089 18.6256 131.489 32.4256L138.689 39.3256L144.989 39.1256C148.389 39.0256 151.389 38.7256 151.589 38.5256C152.189 37.8256 142.989 26.5256 137.889 21.8256C118.989 4.12563 90.4887 -3.77437 65.1887 1.72563Z" fill="#1E71FF"/>
<path d="M124.273 97.7045C120.894 97.7045 117.985 96.9394 115.545 95.4091C113.121 93.8636 111.258 91.7348 109.955 89.0227C108.652 86.3106 108 83.2045 108 79.7045C108 76.1591 108.667 73.0303 110 70.3182C111.333 67.5909 113.212 65.4621 115.636 63.9318C118.061 62.4015 120.917 61.6364 124.205 61.6364C126.856 61.6364 129.22 62.1288 131.295 63.1136C133.371 64.0833 135.045 65.447 136.318 67.2045C137.606 68.9621 138.371 71.0152 138.614 73.3636H132C131.636 71.7273 130.803 70.3182 129.5 69.1364C128.212 67.9545 126.485 67.3636 124.318 67.3636C122.424 67.3636 120.765 67.8636 119.341 68.8636C117.932 69.8485 116.833 71.2576 116.045 73.0909C115.258 74.9091 114.864 77.0606 114.864 79.5455C114.864 82.0909 115.25 84.2879 116.023 86.1364C116.795 87.9848 117.886 89.4167 119.295 90.4318C120.72 91.447 122.394 91.9545 124.318 91.9545C125.606 91.9545 126.773 91.7197 127.818 91.25C128.879 90.7652 129.765 90.0758 130.477 89.1818C131.205 88.2879 131.712 87.2121 132 85.9545H138.614C138.371 88.2121 137.636 90.2273 136.409 92C135.182 93.7727 133.538 95.1667 131.477 96.1818C129.432 97.197 127.03 97.7045 124.273 97.7045ZM152.676 76.2727V97H145.881V50.4545H152.585V67.7727H153.017C153.835 65.8939 155.085 64.4015 156.767 63.2955C158.449 62.1894 160.646 61.6364 163.358 61.6364C165.752 61.6364 167.843 62.1288 169.631 63.1136C171.434 64.0985 172.828 65.5682 173.812 67.5227C174.812 69.4621 175.312 71.8864 175.312 74.7955V97H168.517V75.6136C168.517 73.053 167.858 71.0682 166.54 69.6591C165.222 68.2348 163.388 67.5227 161.04 67.5227C159.434 67.5227 157.994 67.8636 156.722 68.5455C155.464 69.2273 154.472 70.2273 153.744 71.5455C153.032 72.8485 152.676 74.4242 152.676 76.2727ZM194.54 97.7727C192.328 97.7727 190.328 97.3636 188.54 96.5455C186.752 95.7121 185.335 94.5076 184.29 92.9318C183.259 91.3561 182.744 89.4242 182.744 87.1364C182.744 85.1667 183.123 83.5455 183.881 82.2727C184.638 81 185.661 79.9924 186.949 79.25C188.237 78.5076 189.676 77.947 191.267 77.5682C192.858 77.1894 194.479 76.9015 196.131 76.7045C198.222 76.4621 199.919 76.2652 201.222 76.1136C202.525 75.947 203.472 75.6818 204.062 75.3182C204.653 74.9545 204.949 74.3636 204.949 73.5455V73.3864C204.949 71.4015 204.388 69.8636 203.267 68.7727C202.161 67.6818 200.509 67.1364 198.312 67.1364C196.025 67.1364 194.222 67.6439 192.903 68.6591C191.6 69.6591 190.699 70.7727 190.199 72L183.812 70.5455C184.57 68.4242 185.676 66.7121 187.131 65.4091C188.6 64.0909 190.29 63.1364 192.199 62.5455C194.108 61.9394 196.116 61.6364 198.222 61.6364C199.616 61.6364 201.093 61.803 202.653 62.1364C204.229 62.4545 205.699 63.0455 207.062 63.9091C208.441 64.7727 209.57 66.0076 210.449 67.6136C211.328 69.2045 211.767 71.2727 211.767 73.8182V97H205.131V92.2273H204.858C204.419 93.1061 203.759 93.9697 202.881 94.8182C202.002 95.6667 200.873 96.3712 199.494 96.9318C198.116 97.4924 196.464 97.7727 194.54 97.7727ZM196.017 92.3182C197.896 92.3182 199.502 91.947 200.835 91.2045C202.184 90.4621 203.206 89.4924 203.903 88.2955C204.616 87.0833 204.972 85.7879 204.972 84.4091V79.9091C204.729 80.1515 204.259 80.3788 203.562 80.5909C202.881 80.7879 202.1 80.9621 201.222 81.1136C200.343 81.25 199.487 81.3788 198.653 81.5C197.82 81.6061 197.123 81.697 196.562 81.7727C195.244 81.9394 194.04 82.2197 192.949 82.6136C191.873 83.0076 191.009 83.5758 190.358 84.3182C189.722 85.0455 189.403 86.0152 189.403 87.2273C189.403 88.9091 190.025 90.1818 191.267 91.0455C192.509 91.8939 194.093 92.3182 196.017 92.3182ZM237.114 62.0909V67.5455H218.045V62.0909H237.114ZM223.159 53.7273H229.955V86.75C229.955 88.0682 230.152 89.0606 230.545 89.7273C230.939 90.3788 231.447 90.8258 232.068 91.0682C232.705 91.2955 233.394 91.4091 234.136 91.4091C234.682 91.4091 235.159 91.3712 235.568 91.2955C235.977 91.2197 236.295 91.1591 236.523 91.1136L237.75 96.7273C237.356 96.8788 236.795 97.0303 236.068 97.1818C235.341 97.3485 234.432 97.4394 233.341 97.4545C231.553 97.4848 229.886 97.1667 228.341 96.5C226.795 95.8333 225.545 94.803 224.591 93.4091C223.636 92.0152 223.159 90.2652 223.159 88.1591V53.7273Z" fill="#1E71FF"/>
<path d="M171.727 149.773C169.515 149.773 167.515 149.364 165.727 148.545C163.939 147.712 162.523 146.508 161.477 144.932C160.447 143.356 159.932 141.424 159.932 139.136C159.932 137.167 160.311 135.545 161.068 134.273C161.826 133 162.848 131.992 164.136 131.25C165.424 130.508 166.864 129.947 168.455 129.568C170.045 129.189 171.667 128.902 173.318 128.705C175.409 128.462 177.106 128.265 178.409 128.114C179.712 127.947 180.659 127.682 181.25 127.318C181.841 126.955 182.136 126.364 182.136 125.545V125.386C182.136 123.402 181.576 121.864 180.455 120.773C179.348 119.682 177.697 119.136 175.5 119.136C173.212 119.136 171.409 119.644 170.091 120.659C168.788 121.659 167.886 122.773 167.386 124L161 122.545C161.758 120.424 162.864 118.712 164.318 117.409C165.788 116.091 167.477 115.136 169.386 114.545C171.295 113.939 173.303 113.636 175.409 113.636C176.803 113.636 178.28 113.803 179.841 114.136C181.417 114.455 182.886 115.045 184.25 115.909C185.629 116.773 186.758 118.008 187.636 119.614C188.515 121.205 188.955 123.273 188.955 125.818V149H182.318V144.227H182.045C181.606 145.106 180.947 145.97 180.068 146.818C179.189 147.667 178.061 148.371 176.682 148.932C175.303 149.492 173.652 149.773 171.727 149.773ZM173.205 144.318C175.083 144.318 176.689 143.947 178.023 143.205C179.371 142.462 180.394 141.492 181.091 140.295C181.803 139.083 182.159 137.788 182.159 136.409V131.909C181.917 132.152 181.447 132.379 180.75 132.591C180.068 132.788 179.288 132.962 178.409 133.114C177.53 133.25 176.674 133.379 175.841 133.5C175.008 133.606 174.311 133.697 173.75 133.773C172.432 133.939 171.227 134.22 170.136 134.614C169.061 135.008 168.197 135.576 167.545 136.318C166.909 137.045 166.591 138.015 166.591 139.227C166.591 140.909 167.212 142.182 168.455 143.045C169.697 143.894 171.28 144.318 173.205 144.318ZM198.006 162.091V114.091H204.642V119.75H205.21C205.604 119.023 206.172 118.182 206.915 117.227C207.657 116.273 208.688 115.439 210.006 114.727C211.324 114 213.066 113.636 215.233 113.636C218.051 113.636 220.566 114.348 222.778 115.773C224.991 117.197 226.725 119.25 227.983 121.932C229.256 124.614 229.892 127.841 229.892 131.614C229.892 135.386 229.263 138.621 228.006 141.318C226.748 144 225.021 146.068 222.824 147.523C220.627 148.962 218.119 149.682 215.301 149.682C213.18 149.682 211.445 149.326 210.097 148.614C208.763 147.902 207.718 147.068 206.96 146.114C206.203 145.159 205.619 144.311 205.21 143.568H204.801V162.091H198.006ZM204.665 131.545C204.665 134 205.021 136.152 205.733 138C206.445 139.848 207.475 141.295 208.824 142.341C210.172 143.371 211.824 143.886 213.778 143.886C215.809 143.886 217.506 143.348 218.869 142.273C220.233 141.182 221.263 139.705 221.96 137.841C222.672 135.977 223.028 133.879 223.028 131.545C223.028 129.242 222.68 127.174 221.983 125.341C221.301 123.508 220.271 122.061 218.892 121C217.528 119.939 215.824 119.409 213.778 119.409C211.809 119.409 210.142 119.917 208.778 120.932C207.43 121.947 206.407 123.364 205.71 125.182C205.013 127 204.665 129.121 204.665 131.545ZM237.506 162.091V114.091H244.142V119.75H244.71C245.104 119.023 245.672 118.182 246.415 117.227C247.157 116.273 248.188 115.439 249.506 114.727C250.824 114 252.566 113.636 254.733 113.636C257.551 113.636 260.066 114.348 262.278 115.773C264.491 117.197 266.225 119.25 267.483 121.932C268.756 124.614 269.392 127.841 269.392 131.614C269.392 135.386 268.763 138.621 267.506 141.318C266.248 144 264.521 146.068 262.324 147.523C260.127 148.962 257.619 149.682 254.801 149.682C252.68 149.682 250.945 149.326 249.597 148.614C248.263 147.902 247.218 147.068 246.46 146.114C245.703 145.159 245.119 144.311 244.71 143.568H244.301V162.091H237.506ZM244.165 131.545C244.165 134 244.521 136.152 245.233 138C245.945 139.848 246.975 141.295 248.324 142.341C249.672 143.371 251.324 143.886 253.278 143.886C255.309 143.886 257.006 143.348 258.369 142.273C259.733 141.182 260.763 139.705 261.46 137.841C262.172 135.977 262.528 133.879 262.528 131.545C262.528 129.242 262.18 127.174 261.483 125.341C260.801 123.508 259.771 122.061 258.392 121C257.028 119.939 255.324 119.409 253.278 119.409C251.309 119.409 249.642 119.917 248.278 120.932C246.93 121.947 245.907 123.364 245.21 125.182C244.513 127 244.165 129.121 244.165 131.545Z" fill="#1E71FF"/>
<rect width="78" height="20" transform="translate(21 72)" fill="#F5F5F5"/>
<circle cx="31" cy="82" r="10" fill="#1E71FF"/>
<circle cx="60" cy="82" r="10" fill="#1E71FF"/>
<circle cx="89" cy="82" r="10" fill="#1E71FF"/>
</svg>
